:FULLY-SPECIFIED
:FORCE-ALL-JOINTS-BE-3DOF
:DEGREES
340
root 8.19735 16.0706 -20.4352 11.0999 23.8479 4.21097
lfemur -8.79554 15.7935 -10.1299
ltibia 39.8615 0 0
lfoot 6.92135 28.4451 0
ltoes -29.9275 0 0
rfemur -48.2538 -14.6704 10.179
rtibia 55.4678 0 0
rfoot 2.63259 -18.3873 0
rtoes 0.84347 0 0
lowerback -1.0251 -1.82203 -1.57352
upperback 1.72445 -2.39689 -0.063092
thorax 2.40741 -1.22274 0.742868
lowerneck -5.62445 -8.66705 -0.581485
upperneck -2.11065 -11.5363 6.61588
head 0.732131 -5.70838 1.86325
lclavicle -9.31805e-15 1.21259e-14 0
lhumerus -48.325 -34.4809 109.715
lradius 57.3252 0 0
lwrist 20.4189 0 0
lhand 6.09912 12.2003 0
lfingers 7.12502 0 0
lthumb 31.4162 39.5072 0
rclavicle -9.31805e-15 1.21259e-14 0
rhumerus -22.2243 18.9488 -73.6213
rradius 84.9173 0 0
rwrist 2.38406 0 0
rhand 5.43525 -10.102 0
rfingers 7.12502 0 0
rthumb 30.6342 -756.197 0
341
root 8.13264 16.1038 -20.2462 10.8615 22.1025 3.56474
lfemur -8.08251 14.4216 -9.34702
ltibia 40.1795 0 0
lfoot 8.71583 29.0212 0
ltoes -28.5521 0 0
rfemur -48.1673 -15.3277 12.1185
rtibia 55.1444 0 0
rfoot 1.69014 -17.3878 0
rtoes -2.22764 0 0
lowerback -1.2684 -1.72964 -1.31507
upperback 1.64796 -2.27906 0.0652229
thorax 2.45708 -1.16064 0.727135
lowerneck -5.84416 -8.37932 -0.602576
upperneck -1.74738 -11.173 6.52414
head 0.866189 -5.51542 1.83128
lclavicle -1.31606e-15 1.2195e-14 0
lhumerus -48.2801 -33.352 109.396
lradius 57.0392 0 0
lwrist 20.7693 0 0
lhand 5.47863 11.9659 0
lfingers 7.12502 0 0
lthumb 30.825 39.3881 0
rclavicle -1.31606e-15 1.2195e-14 0
rhumerus -23.859 18.2498 -75.7413
rradius 84.8183 0 0
rwrist 2.24174 0 0
rhand -0.525934 -11.7786 0
rfingers 7.12502 0 0
rthumb 24.9678 -759.053 0
342
root 8.06999 16.136 -20.0632 10.6307 20.4129 2.93913
lfemur -7.39224 13.0935 -8.5891
ltibia 40.4873 0 0
lfoot 10.453 29.5788 0
ltoes -27.2207 0 0
rfemur -48.0835 -15.9641 13.9962
rtibia 54.8314 0 0
rfoot 0.777775 -16.4203 0
rtoes -5.20074 0 0
lowerback -1.50394 -1.6402 -1.06487
upperback 1.57391 -2.16498 0.189443
thorax 2.50516 -1.10052 0.711904
lowerneck -6.05686 -8.10078 -0.622994
upperneck -1.3957 -10.8212 6.43533
head 0.995968 -5.32861 1.80032
lclavicle 6.43055e-15 1.2262e-14 0
lhumerus -48.2366 -32.2591 109.087
lradius 56.7624 0 0
lwrist 21.1086 0 0
lhand 4.87794 11.739 0
lfingers 7.12502 0 0
lthumb 30.2528 39.2727 0
rclavicle 6.43055e-15 1.2262e-14 0
rhumerus -25.4415 17.5731 -77.7937
rradius 84.7225 0 0
rwrist 2.10398 0 0
rhand -6.29687 -13.4017 0
rfingers 7.12502 0 0
rthumb 19.4823 -761.818 0
343
root 8.01148 16.166 -19.8923 10.4151 18.8346 2.35477
lfemur -6.74748 11.853 -7.88115
ltibia 40.7749 0 0
lfoot 12.0757 30.0997 0
ltoes -25.977 0 0
rfemur -48.0053 -16.5585 15.75
rtibia 54.539 0 0
rfoot -0.0744378 -15.5165 0
rtoes -7.97781 0 0
lowerback -1.72395 -1.55665 -0.831169
upperback 1.50475 -2.05843 0.305472
thorax 2.55007 -1.04436 0.697678
lowerneck -6.25553 -7.8406 -0.642066
upperneck -1.06721 -10.4926 6.35237
head 1.11719 -5.15413 1.77141
lclavicle 1.36664e-14 1.23246e-14 0
lhumerus -48.196 -31.2383 108.798
lradius 56.5039 0 0
lwrist 21.4254 0 0
lhand 4.31686 11.5271 0
lfingers 7.12502 0 0
lthumb 29.7182 39.165 0
rclavicle 1.36664e-14 1.23246e-14 0
rhumerus -26.9196 16.941 -79.7108
rradius 84.633 0 0
rwrist 1.97529 0 0
rhand -11.6873 -14.9178 0
rfingers 7.12502 0 0
rthumb 14.3584 -764.401 0
